<svg width="18" height="18" viewBox="0 0 18 18" fill="none">
  <path d="M16.5 9.20455C16.5 8.56636 16.4432 7.95273 16.3386 7.36364H9V10.845H13.1932C12.9943 11.97 12.346 12.9232 11.3557 13.5614V15.8195H14.1136C15.6227 14.2523 16.5 11.9455 16.5 9.20455Z" fill="#4285F4"/>
  <path d="M9 17C11.43 17 13.4673 16.1941 14.1136 15.8195L11.3557 13.5614C10.6159 14.1014 9.65455 14.4205 9 14.4205C6.65455 14.4205 4.67182 12.8373 4.00773 10.71H1.16455V13.0418C1.78409 14.2834 2.72045 15.3159 3.88636 16.0764C5.05227 16.8368 6.39773 17.2523 7.77273 17.2523H9V17Z" fill="#34A853"/>
  <path d="M4.00773 10.71C3.90773 10.38 3.85227 10.0318 3.85227 9.67045C3.85227 9.30909 3.90773 8.96091 4.00773 8.63091V6.29909H1.16455C0.795455 7.035 0.579545 7.86136 0.579545 8.72727C0.579545 9.59318 0.795455 10.4195 1.16455 11.1555L4.00773 10.71Z" fill="#FBBC05"/>
  <path d="M9 4.57955C10.3214 4.57955 11.5077 5.03318 12.4405 5.92545L14.1716 4.19455C12.9636 3.04455 11.46 2.40909 9 2.40909C7.625 2.40909 6.27955 2.82455 5.11364 3.585C3.94773 4.34545 3.01136 5.37818 2.39182 6.62L4.00773 8.63091C4.67182 6.50364 6.65455 4.92045 9 4.92045V4.57955Z" fill="#EA4335"/>
</svg>